<?xml version="1.0" encoding="UTF-8"?>
<svg id="Layer_1" data-name="Layer 1" xmlns="http://www.w3.org/2000/svg" viewBox="0 0 19.88 26.61">
  <defs>
    <style>
      .cls-1 {
        fill: none;
      }

      .cls-2 {
        fill: none;
        stroke: #000;
        stroke-miterlimit: 10;
      }
    </style>
  </defs>
  <g>
    <rect class="cls-1" x=".38" y="7.11" width="19.12" height="19.12" rx="3.04" ry="3.04"/>
    <path d="M16.45,7.49c1.47,0,2.66,1.19,2.66,2.66v13.03c0,1.47-1.19,2.66-2.66,2.66H3.43c-1.47,0-2.66-1.19-2.66-2.66v-13.03c0-1.47,1.19-2.66,2.66-2.66h13.03M16.45,6.73H3.43c-1.89,0-3.43,1.53-3.43,3.43v13.03c0,1.89,1.53,3.43,3.43,3.43h13.03c1.89,0,3.43-1.53,3.43-3.43v-13.03c0-1.89-1.53-3.43-3.43-3.43h0Z"/>
  </g>
  <g>
    <line class="cls-2" x1="9.94" y1="1.08" x2="9.94" y2="14.72"/>
    <polygon points="5.85 4.4 6.58 5.08 9.94 1.47 13.3 5.08 14.03 4.4 9.94 0 5.85 4.4"/>
  </g>
</svg>